<svg id="el_HSDyzBr6bef" xmlns="http://www.w3.org/2000/svg" viewBox="0 0 492 404"><style>@-webkit-keyframes el_ilpAwzgl366_0vbWM4Hrd_Animation{21.11%{-webkit-transform: translate(0px, 0px);transform: translate(0px, 0px);}24.44%{-webkit-transform: translate(0px, 13px);transform: translate(0px, 13px);}27.78%{-webkit-transform: translate(0px, 0px);transform: translate(0px, 0px);}82.22%{-webkit-transform: translate(0px, 0px);transform: translate(0px, 0px);}85.19%{-webkit-transform: translate(0px, 13px);transform: translate(0px, 13px);}88.15%{-webkit-transform: translate(0px, 0px);transform: translate(0px, 0px);}0%{-webkit-transform: translate(0px, 0px);transform: translate(0px, 0px);}100%{-webkit-transform: translate(0px, 0px);transform: translate(0px, 0px);}}@keyframes el_ilpAwzgl366_0vbWM4Hrd_Animation{21.11%{-webkit-transform: translate(0px, 0px);transform: translate(0px, 0px);}24.44%{-webkit-transform: translate(0px, 13px);transform: translate(0px, 13px);}27.78%{-webkit-transform: translate(0px, 0px);transform: translate(0px, 0px);}82.22%{-webkit-transform: translate(0px, 0px);transform: translate(0px, 0px);}85.19%{-webkit-transform: translate(0px, 13px);transform: translate(0px, 13px);}88.15%{-webkit-transform: translate(0px, 0px);transform: translate(0px, 0px);}0%{-webkit-transform: translate(0px, 0px);transform: translate(0px, 0px);}100%{-webkit-transform: translate(0px, 0px);transform: translate(0px, 0px);}}@-webkit-keyframes el_0yEaiOJcjy1_JbjjYbPpr_Animation{20.74%{-webkit-transform: translate(0px, 0px);transform: translate(0px, 0px);}24.07%{-webkit-transform: translate(0px, 13px);transform: translate(0px, 13px);}27.41%{-webkit-transform: translate(0px, 0px);transform: translate(0px, 0px);}81.85%{-webkit-transform: translate(0px, 0px);transform: translate(0px, 0px);}84.81%{-webkit-transform: translate(0px, 13px);transform: translate(0px, 13px);}87.78%{-webkit-transform: translate(0px, 0px);transform: translate(0px, 0px);}0%{-webkit-transform: translate(0px, 0px);transform: translate(0px, 0px);}100%{-webkit-transform: translate(0px, 0px);transform: translate(0px, 0px);}}@keyframes el_0yEaiOJcjy1_JbjjYbPpr_Animation{20.74%{-webkit-transform: translate(0px, 0px);transform: translate(0px, 0px);}24.07%{-webkit-transform: translate(0px, 13px);transform: translate(0px, 13px);}27.41%{-webkit-transform: translate(0px, 0px);transform: translate(0px, 0px);}81.85%{-webkit-transform: translate(0px, 0px);transform: translate(0px, 0px);}84.81%{-webkit-transform: translate(0px, 13px);transform: translate(0px, 13px);}87.78%{-webkit-transform: translate(0px, 0px);transform: translate(0px, 0px);}0%{-webkit-transform: translate(0px, 0px);transform: translate(0px, 0px);}100%{-webkit-transform: translate(0px, 0px);transform: translate(0px, 0px);}}@-webkit-keyframes el_MasBcEQvmE3_Animation{21.11%{opacity: 1;}24.44%{opacity: 0;}27.78%{opacity: 1;}82.22%{opacity: 1;}85.19%{opacity: 0;}88.15%{opacity: 1;}0%{opacity: 1;}100%{opacity: 1;}}@keyframes el_MasBcEQvmE3_Animation{21.11%{opacity: 1;}24.44%{opacity: 0;}27.78%{opacity: 1;}82.22%{opacity: 1;}85.19%{opacity: 0;}88.15%{opacity: 1;}0%{opacity: 1;}100%{opacity: 1;}}@-webkit-keyframes el_MasBcEQvmE3_SlR-wKTLS_Animation{21.11%{-webkit-transform: scale(1, 1);transform: scale(1, 1);}24.44%{-webkit-transform: scale(1, 0);transform: scale(1, 0);}27.78%{-webkit-transform: scale(1, 1);transform: scale(1, 1);}82.22%{-webkit-transform: scale(1, 1);transform: scale(1, 1);}85.19%{-webkit-transform: scale(1, 0);transform: scale(1, 0);}88.15%{-webkit-transform: scale(1, 1);transform: scale(1, 1);}0%{-webkit-transform: scale(1, 1);transform: scale(1, 1);}100%{-webkit-transform: scale(1, 1);transform: scale(1, 1);}}@keyframes el_MasBcEQvmE3_SlR-wKTLS_Animation{21.11%{-webkit-transform: scale(1, 1);transform: scale(1, 1);}24.44%{-webkit-transform: scale(1, 0);transform: scale(1, 0);}27.78%{-webkit-transform: scale(1, 1);transform: scale(1, 1);}82.22%{-webkit-transform: scale(1, 1);transform: scale(1, 1);}85.19%{-webkit-transform: scale(1, 0);transform: scale(1, 0);}88.15%{-webkit-transform: scale(1, 1);transform: scale(1, 1);}0%{-webkit-transform: scale(1, 1);transform: scale(1, 1);}100%{-webkit-transform: scale(1, 1);transform: scale(1, 1);}}@-webkit-keyframes el_eDqkm0T4efF_Animation{20.74%{opacity: 1;}24.07%{opacity: 0;}27.41%{opacity: 1;}81.85%{opacity: 1;}84.81%{opacity: 0;}87.78%{opacity: 1;}0%{opacity: 1;}100%{opacity: 1;}}@keyframes el_eDqkm0T4efF_Animation{20.74%{opacity: 1;}24.07%{opacity: 0;}27.41%{opacity: 1;}81.85%{opacity: 1;}84.81%{opacity: 0;}87.78%{opacity: 1;}0%{opacity: 1;}100%{opacity: 1;}}@-webkit-keyframes el_eDqkm0T4efF_AawQCx4wH_Animation{20.74%{-webkit-transform: scale(1, 1);transform: scale(1, 1);}24.07%{-webkit-transform: scale(1, 0);transform: scale(1, 0);}27.41%{-webkit-transform: scale(1, 1);transform: scale(1, 1);}81.85%{-webkit-transform: scale(1, 1);transform: scale(1, 1);}84.81%{-webkit-transform: scale(1, 0);transform: scale(1, 0);}87.78%{-webkit-transform: scale(1, 1);transform: scale(1, 1);}0%{-webkit-transform: scale(1, 1);transform: scale(1, 1);}100%{-webkit-transform: scale(1, 1);transform: scale(1, 1);}}@keyframes el_eDqkm0T4efF_AawQCx4wH_Animation{20.74%{-webkit-transform: scale(1, 1);transform: scale(1, 1);}24.07%{-webkit-transform: scale(1, 0);transform: scale(1, 0);}27.41%{-webkit-transform: scale(1, 1);transform: scale(1, 1);}81.85%{-webkit-transform: scale(1, 1);transform: scale(1, 1);}84.81%{-webkit-transform: scale(1, 0);transform: scale(1, 0);}87.78%{-webkit-transform: scale(1, 1);transform: scale(1, 1);}0%{-webkit-transform: scale(1, 1);transform: scale(1, 1);}100%{-webkit-transform: scale(1, 1);transform: scale(1, 1);}}#el_HSDyzBr6bef *{-webkit-animation-duration: 9s;animation-duration: 9s;-webkit-animation-iteration-count: infinite;animation-iteration-count: infinite;-webkit-animation-timing-function: cubic-bezier(0, 0, 1, 1);animation-timing-function: cubic-bezier(0, 0, 1, 1);}#el_DzGeLKWoq-9{fill: #202020;visibility: hidden;}#el_4MDbwiPkH95{fill: #a78e79;-webkit-transform: translate(67.08px, 52.33px);transform: translate(67.08px, 52.33px);}#el_eDqkm0T4efF{fill: #a78e79;-webkit-animation-name: el_eDqkm0T4efF_Animation;animation-name: el_eDqkm0T4efF_Animation;}#el_MasBcEQvmE3{fill: #a78e79;-webkit-transform: translate(53.65px, 73.94px) rotate(-5.48deg);transform: translate(53.65px, 73.94px) rotate(-5.48deg);-webkit-animation-name: el_MasBcEQvmE3_Animation;animation-name: el_MasBcEQvmE3_Animation;}#el_0yEaiOJcjy1{fill: #a78e79;-webkit-transform: translate(67.08px, 52.33px);transform: translate(67.08px, 52.33px);}#el_ilpAwzgl366{fill: #a78e79;-webkit-transform: translate(67.08px, 52.33px);transform: translate(67.08px, 52.33px);}#el_eDqkm0T4efF_AawQCx4wH{-webkit-animation-name: el_eDqkm0T4efF_AawQCx4wH_Animation;animation-name: el_eDqkm0T4efF_AawQCx4wH_Animation;-webkit-transform-origin: 50% 50%;transform-origin: 50% 50%;transform-box: fill-box;}#el_MasBcEQvmE3_SlR-wKTLS{-webkit-animation-name: el_MasBcEQvmE3_SlR-wKTLS_Animation;animation-name: el_MasBcEQvmE3_SlR-wKTLS_Animation;-webkit-transform-origin: 50% 50%;transform-origin: 50% 50%;transform-box: fill-box;}#el_0yEaiOJcjy1_JbjjYbPpr{-webkit-animation-name: el_0yEaiOJcjy1_JbjjYbPpr_Animation;animation-name: el_0yEaiOJcjy1_JbjjYbPpr_Animation;-webkit-transform-origin: 50% 50%;transform-origin: 50% 50%;transform-box: fill-box;}#el_ilpAwzgl366_0vbWM4Hrd{-webkit-animation-name: el_ilpAwzgl366_0vbWM4Hrd_Animation;animation-name: el_ilpAwzgl366_0vbWM4Hrd_Animation;-webkit-transform-origin: 50% 50%;transform-origin: 50% 50%;transform-box: fill-box;}</style><defs/><title>logo</title><rect x="157.03" y="105.33" width="185.05" height="178" id="el_DzGeLKWoq-9"/><path id="el_4MDbwiPkH95" d="M425.27,225.92s-.31-8.77-8-19.31a38,38,0,0,0-6.12-7c-9.88-9.15-23.32-16.3-51.79-29.68-26-12.21-39.94-35.76-45.09-46.23a83.9,83.9,0,0,1-2.76-8.6h0a78.51,78.51,0,0,1-1.84-21.18s18-21.32,17-25.21-19.27-13.94-19.27-13.94l13.73-17.42s3.28-4.1,3.49-17.21,1.43-32,1.43-32S301.24,8,297.76,18.68l-5.94,9.63s-7.38-2.25-9-2.45c0,0,5.53-14.15,5.53-15.58s-11.89.82-13.94,1L262.3-9.39s-8.4,17.83-7.78,35L236.89,12.74l3.69-6.35L252.67-.38l.82-31.15L226.85-17.59l-.62,13.52L220.9,4.75s-8.19-3.08-10.45-3.49c0,0-.82-15.16-2.87-19.88S194.47-7.35,194.26-2.84c0,0-10.27-1.07-15.43-.92v-12.3l5.9-10.75L168.44-52.33l-18,25.52,7.37,10.91L158.14-3S145.23-.84,142.92.08c0,0-10.14-12.6-14-15.37,0,0-4.77,4.61-3.08,20.75,0,0-7.68,2.92-8.91,4L111.11.08l-1.23-12.45L81.75-26.66,84.21,5.77,95.12,9.46l6.76,8.61S89.28,25,85.44,31.9L75-6.37S64.23,12.69,63,18.38c0,0-12.15-2.62-12.76-1.39s4.3,14.35,5.68,15.63c0,0-7.37,4.1-9.83,8.2L7.15,8S3.87,32.62,9.61,48.19,35,71.15,35,71.15,15.35,83.85,15.76,88,34.2,108,34.2,108s-11.27,46.52-38.53,66.4c-26.48,19.31-70,46-61.73,80.37a28.38,28.38,0,0,1,.79,6.3c.09,8.07,2.12,29.43,19.75,44.29,0,0-29.72-46.11,16.6-75.63,0,0,10-8.4,33.4-19.26s43.45-41.4,43.45-41.4-11.88,32-33,44.27-47.14,44.06-37.1,76.85S11,328.76,11,328.76s18.86,8.81,10.25,23.57c0,0,17.21-8.81,3.28-24.8S.8,305.6,7.35,273.43s26-44.27,26-44.27-29.31,42-7.58,78.08,40.78,36.89,40.78,36.89S47.52,326.3,54.9,284.49c0,0-3.07,29.72,50.62,55.13,0,0,.2-23.77,4.5-42.58,2.41,11.58,7.6,28.79,17.84,34.9,0,0,19.43-6.23,29-24.15,8.82,9,15.3,18.15,13.8,24.87-4.1,18.44-5.74,18.85-5.74,18.85s31.77-2.87,38.12-34.43,6-26.44,6-26.44,35.66,39.56,17,61.69c0,0,65.79-7.58,77.06-73,0,0,20.08,34.64-6.77,73,0,0,66-40.37,34-111.69,0,0,29.52,13.93,37.92,37.3s-13.9,36.21-13.9,36.21-16.23,6.82-6.8,21.38c0,0-2.46-14.15,9.43-20.29s38.52-22.24,17.41-78c0,0-5.47-15.79-27.93-28.07,0,0-35.08-21.11-44.31-45.09,0,0,29.85,25.47,47.24,31.46,21.05,7.24,61.08,16,63.13,42.42s-9,44.06-14.14,48.16C398.39,286.13,430.18,269.57,425.27,225.92ZM.21,192.56a10.9,10.9,0,0,1-2.29,1.21C-71,221.2-64,253.86-64,253.86c-3-29.76,24.6-50.11,30.74-54.72s31.05-22.75,31.05-22.75c31-27.46,36.59-62.1,36.59-62.1C32.16,177.46,5.17,189,.21,192.56Zm-17.86,74.92c.61-29.71,41-54.72,41-54.72C-5.35,242.89-17.65,267.48-17.65,267.48Zm121.12-107c-5.33-8.19-6.15-37.71-6.15-37.71,0,7.79,10.87,24.6,10.87,24.6-4.31-18.45,10-56.16,10-56.16,4.92,44.68,23.77,51.24,23.77,51.24-9.43-12.3-12.71-33.61-12.71-33.61,4.51,21.72,23.37,33.61,23.37,33.61-11.48-18.86-7.79-70.09-4.92-71.73s18.44,0,18.44,0L186.27,70c15.16,24.27,2.46,72.05,2.46,72.05C204.3,136.32,206.35,90,206.35,90c3.69,7.38,12.3,49.19,12.3,49.19C231.77,128.12,233,89.59,233,89.59s12.7,36.07,13.11,48.37-7,18.44-7,18.44c4.92,0,17.63-11.43,17.63-11.43a157.87,157.87,0,0,1-9,42.59c-8.2,22.54-50.41,32.38-74.19,32.38s-46.72-6.56-60.25-15.17S90,150,90,150C92.81,154.25,103.47,160.5,103.47,160.5ZM345.29,211c32.77,18.09,32.19,47.67,32.19,47.67-1.84-8.76-14.29-20-14.29-20-21-16.5-41.37-43.47-44.59-47.81C323.53,196.81,345.29,211,345.29,211Zm4.36-32.73a32.42,32.42,0,0,1-4.93-1.91c-27-12.85-31.08-41.3-31.57-49.13,6.93,12,15.86,21.75,24.52,30.69S364.94,175,364.94,175c25.27,11.93,36.47,21.17,36.47,21.17C387.76,186.59,361.87,181.6,349.65,178.22Z"/><g id="el_eDqkm0T4efF_AawQCx4wH" data-animator-group="true" data-animator-type="2"><ellipse id="el_eDqkm0T4efF" cx="193.61" cy="207.34" rx="13.69" ry="18.28"/></g><g id="el_MasBcEQvmE3_SlR-wKTLS" data-animator-group="true" data-animator-type="2"><ellipse id="el_MasBcEQvmE3" cx="219.11" cy="151.23" rx="13.93" ry="18.28"/></g><g id="el_0yEaiOJcjy1_JbjjYbPpr" data-animator-group="true" data-animator-type="0"><path id="el_0yEaiOJcjy1" d="M104,140.73s7.47,2.07,11.87-1.46,16.46-9.2,24.93,6c0,0-9.33-5.8-14.27-4.47S108.58,150,104,140.73Z"/></g><g id="el_ilpAwzgl366_0vbWM4Hrd" data-animator-group="true" data-animator-type="0"><path id="el_ilpAwzgl366" d="M238.76,132.2s-7,3.32-11.94.6S209,126.56,203.29,143c0,0,8.2-7.31,13.29-6.85S235.89,142.11,238.76,132.2Z"/></g><script>(function(){var a=document.querySelector('#el_HSDyzBr6bef'),b=a.querySelectorAll('style'),c=function(d){b.forEach(function(f){var g=f.textContent;g&amp;&amp;(f.textContent=g.replace(/transform-box:[^;\r\n]*/gi,'transform-box: '+d))})};c('initial'),window.requestAnimationFrame(function(){return c('fill-box')})})();</script></svg>