<svg id="Projects_Page" data-name="Projects Page" xmlns="http://www.w3.org/2000/svg" viewBox="0 0 312.5 350.69"><defs><style>.cls-1{fill:#897364;}.cls-2,.cls-3,.cls-4{fill:none;stroke:#68584d;stroke-miterlimit:10;stroke-width:7px;}.cls-3{stroke-dasharray:10.19 10.19;}.cls-4{stroke-dasharray:10.11 10.11;}.cls-5{fill:#68584d;}</style></defs><title>code-frame</title><g id="Body"><g id="Code-frame"><rect class="cls-1" x="3.5" y="3.5" width="305.5" height="343.69"/><polyline class="cls-2" points="309 342.19 309 347.19 304 347.19"/><line class="cls-3" x1="293.81" y1="347.19" x2="13.59" y2="347.19"/><polyline class="cls-2" points="8.5 347.19 3.5 347.19 3.5 342.19"/><line class="cls-4" x1="3.5" y1="332.08" x2="3.5" y2="13.56"/><polyline class="cls-2" points="3.5 8.5 3.5 3.5 8.5 3.5"/><line class="cls-3" x1="18.69" y1="3.5" x2="298.91" y2="3.5"/><polyline class="cls-2" points="304 3.5 309 3.5 309 8.5"/><line class="cls-4" x1="309" y1="18.61" x2="309" y2="337.13"/><rect class="cls-5" x="19.77" y="80.58" width="21.22" height="21.22"/><rect class="cls-5" x="19.77" y="123.01" width="21.22" height="21.22"/><rect class="cls-5" x="19.77" y="165.44" width="21.22" height="21.22"/><rect class="cls-5" x="19.77" y="207.87" width="21.22" height="21.22"/><rect class="cls-5" x="19.77" y="250.3" width="21.22" height="21.22"/><rect class="cls-5" x="19.77" y="292.73" width="21.22" height="21.22"/><rect class="cls-5" x="66.44" y="80.58" width="53.04" height="21.22"/><rect class="cls-5" x="140.69" y="80.58" width="21.22" height="21.22"/><rect class="cls-5" x="183.12" y="80.58" width="21.22" height="21.22"/><rect class="cls-5" x="87.65" y="123.01" width="31.82" height="21.22"/><rect class="cls-5" x="140.69" y="123.01" width="10.61" height="21.22"/><rect class="cls-5" x="172.52" y="123.01" width="31.82" height="21.22"/><rect class="cls-5" x="66.44" y="165.44" width="31.82" height="21.22"/><rect class="cls-5" x="108.87" y="165.44" width="53.04" height="21.22"/><rect class="cls-5" x="172.52" y="165.44" width="10.61" height="21.22"/><rect class="cls-5" x="193.73" y="165.44" width="21.22" height="21.22"/><rect class="cls-5" x="66.44" y="207.87" width="10.61" height="21.22"/><rect class="cls-5" x="87.65" y="207.87" width="31.82" height="21.22"/><rect class="cls-5" x="130.08" y="207.87" width="84.86" height="21.22"/><rect class="cls-5" x="77.05" y="250.3" width="42.43" height="21.22"/><rect class="cls-5" x="130.08" y="250.3" width="10.61" height="21.22"/><rect class="cls-5" x="151.3" y="250.3" width="53.04" height="21.22"/><rect class="cls-5" x="66.44" y="292.73" width="53.04" height="21.22"/><rect class="cls-5" x="130.08" y="292.73" width="10.61" height="21.22"/><rect class="cls-5" x="151.3" y="292.73" width="10.61" height="21.22"/><rect class="cls-5" x="172.52" y="292.73" width="31.82" height="21.22"/><rect class="cls-5" x="15.52" y="55.12" width="280.04" height="12.73"/><rect class="cls-5" x="28.25" y="29.67" width="12.73" height="12.73"/><rect class="cls-5" x="53.71" y="29.67" width="12.73" height="12.73"/><rect class="cls-5" x="79.17" y="29.67" width="12.73" height="12.73"/></g></g></svg>