<svg id="Front_Page" data-name="Front Page" xmlns="http://www.w3.org/2000/svg" viewBox="0 0 152.43 52.44"><defs><style>.cls-1{fill:#e5e5e5;}</style></defs><title>dscrd-ad</title><g id="Body"><g id="Discord"><path class="cls-1" d="M382.51-1339.68a2.22,2.22,0,0,0-2.14,2.31,2.23,2.23,0,0,0,2.14,2.31,2.22,2.22,0,0,0,2.15-2.31A2.24,2.24,0,0,0,382.51-1339.68Zm-7.66,0a2.22,2.22,0,0,0-2.15,2.31,2.24,2.24,0,0,0,2.15,2.31,2.22,2.22,0,0,0,2.14-2.31A2.21,2.21,0,0,0,374.85-1339.68Z" transform="translate(-360.84 1357.16)"/><path class="cls-1" d="M393.3-1357.16H365.15a4.32,4.32,0,0,0-4.31,4.31v28.15a4.31,4.31,0,0,0,4.31,4.3H389l-1.11-3.84,2.69,2.48,2.54,2.33,4.54,3.93v-37.35A4.35,4.35,0,0,0,393.3-1357.16Zm-8.11,27.2s-.76-.9-1.39-1.68a6.62,6.62,0,0,0,3.81-2.48,12.11,12.11,0,0,1-2.42,1.24,15.21,15.21,0,0,1-3.05.91,14.76,14.76,0,0,1-5.44,0,16.8,16.8,0,0,1-3.09-.91,13.61,13.61,0,0,1-1.53-.71l-.19-.11-.08,0a6.65,6.65,0,0,1-.59-.36,6.58,6.58,0,0,0,3.68,2.46c-.63.8-1.41,1.72-1.41,1.72-4.64-.14-6.41-3.17-6.41-3.17a27.69,27.69,0,0,1,3-12.14,10.35,10.35,0,0,1,5.88-2.18l.21.25a13.74,13.74,0,0,0-5.5,2.73s.46-.25,1.23-.59a16.25,16.25,0,0,1,4.77-1.32,2.2,2.2,0,0,1,.36,0,18,18,0,0,1,4.24,0,17.42,17.42,0,0,1,6.33,2,13.75,13.75,0,0,0-5.23-2.65l.29-.33a10.31,10.31,0,0,1,5.88,2.18,27.69,27.69,0,0,1,3,12.14,7.69,7.69,0,0,1-6.41,3.15Zm31.72-18.21h-7v7.84l4.64,4.18v-7.61h2.48c1.57,0,2.35.76,2.35,2v5.82c0,1.21-.74,2-2.35,2h-7.15v4.44h7c3.74,0,7.25-1.85,7.25-6.14v-6.26C424.16-1346.26,420.65-1348.17,416.91-1348.17Zm36.55,12.54v-6.43c0-2.31,4.16-2.83,5.42-.52l3.85-1.56a6.92,6.92,0,0,0-6.56-4.28c-3.74,0-7.43,2.16-7.43,6.36v6.43c0,4.25,3.69,6.37,7.35,6.37a7.5,7.5,0,0,0,6.72-4.18l-4.12-1.89c-1,2.58-5.23,1.95-5.23-.3Zm-12.71-5.54c-1.45-.32-2.41-.84-2.48-1.75.09-2.16,3.43-2.25,5.38-.17l3.09-2.37a7.67,7.67,0,0,0-6.37-3c-3.42,0-6.74,1.93-6.74,5.59s2.73,5.46,5.74,5.92c1.53.21,3.23.82,3.19,1.87-.13,2-4.24,1.89-6.11-.38l-3,2.79a8.2,8.2,0,0,0,6.35,3.39c3.42,0,7.22-2,7.37-5.59.21-4.56-3.11-5.71-6.43-6.32Zm-14.07,11.65h4.7v-18.65h-4.7ZM506-1348.17h-7v7.84l4.64,4.18v-7.61h2.48c1.57,0,2.35.76,2.35,2v5.82c0,1.21-.73,2-2.35,2H499v4.44h7c3.74,0,7.25-1.85,7.25-6.14v-6.26C513.27-1346.26,509.76-1348.17,506-1348.17Zm-34.22-.25c-3.86,0-7.71,2.1-7.71,6.41v6.36c0,4.27,3.87,6.41,7.75,6.41s7.71-2.14,7.71-6.41V-1342C479.55-1346.3,475.67-1348.42,471.8-1348.42Zm3,12.77c0,1.35-1.52,2-3,2s-3-.65-3-2V-1342c0-1.37,1.47-2.11,2.94-2.11s3.09.66,3.09,2.11Zm21.61-6.36c-.1-4.37-3.09-6.14-6.93-6.14h-7.46v18.66h4.77v-5.93h.84l4.33,5.93h5.88l-5.08-6.41C495-1336.62,496.44-1338.57,496.44-1342Zm-6.85,2.52h-2.77v-4.27h2.77A2.14,2.14,0,1,1,489.59-1339.49Z" transform="translate(-360.84 1357.16)"/><path class="cls-1" d="M405.84-1307.13c0,1.62-.74,2.41-2.25,2.41a2.41,2.41,0,0,1-1.12-.23v-1.26a2,2,0,0,0,.92.22.89.89,0,0,0,1-1v-6.23h1.46Z" transform="translate(-360.84 1357.16)"/><path class="cls-1" d="M412-1313.37a4.26,4.26,0,0,1,4.33,4.32,4.24,4.24,0,0,1-4.33,4.33,4.24,4.24,0,0,1-4.32-4.33A4.26,4.26,0,0,1,412-1313.37Zm0,7.3a2.84,2.84,0,0,0,2.86-3,2.85,2.85,0,0,0-2.86-3,2.86,2.86,0,0,0-2.86,3A2.85,2.85,0,0,0,412-1306.07Z" transform="translate(-360.84 1357.16)"/><path class="cls-1" d="M418.25-1304.87v-8.35h1.46v8.35Z" transform="translate(-360.84 1357.16)"/><path class="cls-1" d="M428.9-1304.74l-4.89-5a4.73,4.73,0,0,0-.4-.37v5.24h-1.44v-8.48h.05l4.87,5,.4.39v-5.25h1.44v8.48Z" transform="translate(-360.84 1357.16)"/><path class="cls-1" d="M435.67-1309.68l-.33-.33v5.14h-1.4v-8.48h0l3.89,4.31,3.88-4.31h0v8.48h-1.39V-1310l-.34.33c-.72.84-1.45,1.68-2.18,2.51Z" transform="translate(-360.84 1357.16)"/><path class="cls-1" d="M444.23-1304.87v-8.35h5.25v1.23h-3.79v2.29h3.21v1.2h-3.21v2.4h4v1.23Z" transform="translate(-360.84 1357.16)"/><path class="cls-1" d="M457.83-1313.37a4.26,4.26,0,0,1,4.33,4.32,4.25,4.25,0,0,1-4.33,4.33,4.24,4.24,0,0,1-4.32-4.33A4.26,4.26,0,0,1,457.83-1313.37Zm0,7.3a2.84,2.84,0,0,0,2.86-3,2.85,2.85,0,0,0-2.86-3,2.85,2.85,0,0,0-2.86,3A2.84,2.84,0,0,0,457.83-1306.07Z" transform="translate(-360.84 1357.16)"/><path class="cls-1" d="M470.76-1304.74l-4.88-5c-.13-.12-.26-.26-.4-.37v5.24H464v-8.48h0l4.88,5,.4.39v-5.25h1.44v8.48Z" transform="translate(-360.84 1357.16)"/></g></g></svg>