<svg id="Projects_Page" data-name="Projects Page" xmlns="http://www.w3.org/2000/svg" viewBox="0 0 225 225"><defs><style>.cls-1{fill:#897364;}.cls-2,.cls-3{fill:none;stroke:#68584d;stroke-miterlimit:10;stroke-width:7px;}.cls-3{stroke-dasharray:10.24 10.24;}.cls-4{fill:#68584d;}</style></defs><title>logo-frame</title><g id="Body"><g id="Logo-frame"><rect class="cls-1" x="40.07" y="39.71" width="145.59" height="145.59"/><line class="cls-2" y1="39.71" x2="5" y2="39.71"/><line class="cls-3" x1="15.24" y1="39.71" x2="214.88" y2="39.71"/><line class="cls-2" x1="220" y1="39.71" x2="225" y2="39.71"/><line class="cls-2" y1="185.66" x2="5" y2="185.66"/><line class="cls-3" x1="15.24" y1="185.66" x2="214.88" y2="185.66"/><line class="cls-2" x1="220" y1="185.66" x2="225" y2="185.66"/><line class="cls-2" x1="40.07" x2="40.07" y2="5"/><line class="cls-3" x1="40.07" y1="15.24" x2="40.07" y2="214.88"/><line class="cls-2" x1="40.07" y1="220" x2="40.07" y2="225"/><line class="cls-2" x1="185.66" x2="185.66" y2="5"/><line class="cls-3" x1="185.66" y1="15.24" x2="185.66" y2="214.88"/><line class="cls-2" x1="185.66" y1="220" x2="185.66" y2="225"/><path class="cls-4" d="M4284-1899s9-36,45-45,0-45,0-45,45,18,27,45S4329-1953,4284-1899Z" transform="translate(-4212 2052)"/><path class="cls-4" d="M4293-1899s27-27,45-27,27-18,27-18,0,27-27,27S4293-1899,4293-1899Z" transform="translate(-4212 2052)"/><path class="cls-4" d="M4329-1980s9,18,0,27-9,9-18,9C4311-1944,4329-1953,4329-1980Z" transform="translate(-4212 2052)"/></g></g></svg>