<svg id="Opened_eyes" data-name="Opened eyes" xmlns="http://www.w3.org/2000/svg" viewBox="0 0 231.07 189.72"><defs><style>.cls-1{fill:#e5e4e4;}.cls-2{fill:#a78e79;}</style></defs><title>Logo</title><g id="Logo"><g id="With_Text" data-name="With Text"><path class="cls-1" d="M137.37,197.29l0,.1,0,.13a.71.71,0,0,1,0,.29v0l.19.15.16,0h.13l.37.07.13-.05h.28l.08,0,.14,0,.3-.07.16-.09.13,0,.12-.08.25-.21,0-.31,0-.14,0-.17,0-.14v-.17l0-.28-.14-.1,0-.13-.26-.2-.13-.09-.3-.1-.18,0h-.05a.53.53,0,0,1-.18-.05l0,0h-.17l-.37,0-.33,0-.09,0-.18.16,0,.19,0,.3v.88Z" transform="translate(-34.71 -55.14)"/><path class="cls-1" d="M140.15,200l-.1-.16-.24-.22-.15,0-.32-.08-.2,0H139l-.17-.05-.2,0-.31,0h-.2l-.31,0-.17,0-.21.12,0,.15,0,.13v.45l0,.26s0,.08,0,.11v.13l0,.31v.48l0,.14.15.23.16,0,.3,0h.12l.05,0,.16,0,.22,0H139a.41.41,0,0,1,.16,0l.08,0,.32-.08.29-.21.07,0,.21-.21.08-.13.06-.32,0-.17v0a.55.55,0,0,1,0-.28h0l0-.2Z" transform="translate(-34.71 -55.14)"/><path class="cls-1" d="M109.31,200l-.1-.16-.24-.22-.16,0-.31-.08-.2,0h-.13l-.17-.05-.2,0-.31,0h-.2l-.32,0-.17,0-.21.12v.15l0,.13v.71s0,.08,0,.11v.13l0,.31v.48l0,.14.16.23.16,0,.3,0h.12l0,0,.16,0,.22,0h.36a.36.36,0,0,1,.15,0l.08,0,.33-.08.29-.21.07,0,.21-.21.08-.13.06-.32v-.19a.9.9,0,0,1,0-.28h0v-.2Z" transform="translate(-34.71 -55.14)"/><path class="cls-1" d="M265.53,185.59s-.14-4.11-3.75-9.05a18.18,18.18,0,0,0-2.87-3.29c-4.64-4.29-10.93-7.64-24.28-13.92-12.19-5.72-18.73-16.76-21.14-21.67a38.19,38.19,0,0,1-1.3-4h0a36.71,36.71,0,0,1-.86-9.93s8.45-10,8-11.82-9-6.53-9-6.53l6.44-8.17s1.54-1.92,1.63-8.07.68-15,.68-15-11.63,9.32-13.26,14.31L203,93s-3.46-1.06-4.23-1.15c0,0,2.6-6.63,2.6-7.3s-5.58.38-6.54.48l-5.67-9.71s-3.94,8.36-3.65,16.43l-8.26-6,1.73-3,5.67-3.17L185,64.89l-12.49,6.54-.29,6.34-2.5,4.13s-3.84-1.44-4.9-1.63c0,0-.38-7.11-1.34-9.32s-6.15,5.28-6.25,7.4c0,0-4.81-.51-7.23-.44V72.15l2.77-5.05-7.64-12-8.43,12,3.46,5.12.14,6s-6.05,1-7.13,1.45c0,0-4.76-5.91-6.56-7.21,0,0-2.24,2.16-1.44,9.73A30.86,30.86,0,0,0,121,84.11l-2.74-4.39-.58-5.84-13.19-6.7,1.16,15.2,5.11,1.73,3.17,4s-5.9,3.24-7.71,6.48l-4.9-17.94s-5,8.93-5.62,11.6c0,0-5.69-1.22-6-.65s2,6.73,2.67,7.33c0,0-3.46,1.92-4.61,3.84L69.51,83.44S68,95,70.66,102.27,82.58,113,82.58,113s-9.23,6-9,7.88,8.64,9.42,8.64,9.42-5.28,21.81-18.06,31.13c-12.41,9-32.81,21.55-28.94,37.68a13.24,13.24,0,0,1,.37,3c0,3.79,1,13.8,9.26,20.76,0,0-13.93-21.61,7.78-35.45,0,0,4.71-3.94,15.66-9S88.63,159,88.63,159s-5.57,15-15.47,20.75-22.1,20.66-17.39,36,15.57,18.07,15.57,18.07,8.84,4.13,4.8,11.05c0,0,8.07-4.13,1.54-11.63S66.53,223,69.61,207.87s12.2-20.76,12.2-20.76-13.74,19.7-3.56,36.61S97.37,241,97.37,241s-8.93-8.35-5.47-28c0,0-1.44,13.94,23.73,25.85a110.42,110.42,0,0,1,2.11-20c1.13,5.43,3.56,13.49,8.36,16.36,0,0,9.11-2.92,13.61-11.32,4.14,4.2,7.17,8.51,6.47,11.65-1.92,8.65-2.69,8.84-2.69,8.84s14.9-1.34,17.88-16.14,2.78-12.39,2.78-12.39,16.72,18.54,8,28.92c0,0,30.84-3.56,36.12-34.21,0,0,9.42,16.24-3.17,34.21,0,0,30.94-18.93,15.95-52.37,0,0,13.84,6.54,17.78,17.49s-6.52,17-6.52,17-7.61,3.2-3.19,10c0,0-1.15-6.63,4.42-9.51s18.06-10.43,8.17-36.56c0,0-2.56-7.41-13.1-13.17,0,0-16.44-9.89-20.77-21.13,0,0,14,11.94,22.15,14.74,9.86,3.4,28.63,7.5,29.59,19.89s-4.23,20.66-6.63,22.58C252.93,213.82,267.84,206.06,265.53,185.59ZM66.25,170a4.64,4.64,0,0,1-1.06.55c-32.53,12.87-29,28.18-29,28.18C34.74,184.74,47.7,175.2,50.58,173s14.56-10.67,14.56-10.67a54.45,54.45,0,0,0,17.15-29.11C81.23,162.91,68.55,168.28,66.25,170Zm-8.37,35.12c.29-13.93,19.22-25.65,19.22-25.65C63.65,193.55,57.88,205.08,57.88,205.08Zm53.64-4.4v.37a1,1,0,0,1,0,.25l0,.13v0a.51.51,0,0,1,0,.22l0,.09a.19.19,0,0,1-.05.11l0,.08-.07.12a.6.6,0,0,1-.18.21l-.33.43-.2.2h0a.47.47,0,0,1-.24.13l-.18,0-.15.07-.3.08-.16,0-.31.09-.38.09a.2.2,0,0,1-.11,0h-.51l-.17,0h-.82l-.28,0h-.48l-.17,0h-.43l-.34,0H105a.57.57,0,0,1-.23-.12.6.6,0,0,1-.14-.26v0l0-.3,0-.14v-.32l0-.18V202a.25.25,0,0,1,0-.12l0-.08,0-.2a1.09,1.09,0,0,1,0-.18v-.5l0-.31v-.21l0-.35,0-.13v-.25a.7.7,0,0,1,0-.14v0l0-.32v-.64l0-.24v-.47a.32.32,0,0,1,0-.13v-.36h0a.82.82,0,0,1,0-.28l0-.16,0-.17v-.48l0-.25a.41.41,0,0,1,0-.16l0-.07v-.28a.66.66,0,0,1,0-.14l0-.07,0-.32,0-.13,0-.32a.22.22,0,0,1,0-.1.39.39,0,0,1,.3-.29l.27,0h.21l.29,0h.87l.14,0h.2l.16,0,.3,0h.47l0,0a.71.71,0,0,1,.25,0l.21,0,.35.06.2.06.19,0,.19.06,0,0,.26.1.2,0,.2.07a.54.54,0,0,1,.18.1l0,0,.17.11a.4.4,0,0,1,.12.1l.22.27s.06.05.07.08l0,0,.17.31v0a.87.87,0,0,1,.07.17l0,.19v.12l0,.17a.92.92,0,0,1,0,.29l0,.15,0,.3v.3a.73.73,0,0,1-.12.3l-.06.08-.07.11-.15.17-.09.09-.08,0-.2.2-.22.2v.11l.13.12.15.06.21.14.13.12.13.1a.93.93,0,0,1,.13.15l0,0,.13.17a.78.78,0,0,1,.1.15l0,0,.06.27,0,.18.08.27a.24.24,0,0,1,0,.12Zm9.9-1.3v.16l0,.32V200l0,.14,0,.15,0,.14,0,.21a.41.41,0,0,1,0,.11l0,.12,0,.2a.66.66,0,0,1,0,.15l0,.09-.1.32,0,.06a.44.44,0,0,1-.08.2l-.13.18-.08.12-.18.21-.11.12-.11.14a.8.8,0,0,1-.23.18l-.27.21-.11.07-.17.11a.58.58,0,0,1-.22.08h0l-.29.1-.13.06-.3.13-.12,0-.12,0-.28,0h-.83l-.16,0h-.47l-.36-.06-.13,0-.21,0a1,1,0,0,1-.21-.07h0l-.28-.12-.12-.06,0,0-.3-.19-.09-.05-.21-.16-.31-.22-.11-.12-.08-.09-.09-.11a.57.57,0,0,1-.19-.3l-.09-.14a.69.69,0,0,1-.08-.21v0l-.11-.2s0-.06,0-.12l0-.09,0-.33v-.07a.36.36,0,0,1,0-.15l0-.26,0-.16v-.46l0-.25s0-.09,0-.12l0-.09,0-.29,0-.14,0-.3v-.15l0-.33,0-.16v-.22a.66.66,0,0,1,0-.14v-1a1.34,1.34,0,0,1,0-.2l0-.25v-.38l0-.13,0-.26a.68.68,0,0,1,0-.14v-.05l0-.33,0-.18,0-.32a.18.18,0,0,1,0-.13h0a.52.52,0,0,1,.36-.12l.29,0,.17-.05h.35l.1,0,.34,0a.68.68,0,0,1,.17,0,.55.55,0,0,1,.17.17.62.62,0,0,1,0,.27v.81l0,.29v.06a.92.92,0,0,1,0,.16l0,.25,0,.36v.25l0,.22,0,.14,0,.28,0,.14,0,.32v.22l0,.23,0,.13v.46l0,.3,0,.15,0,.23a.43.43,0,0,1,0,.16v.51l0,.32v.12l.14.31.05.08.16.25.13.12.29.19.32.12.15.07h.6l.19,0,.11,0,.35,0,.13,0,.25-.08.14-.08.24-.2.09-.06.2-.27,0-.18.13-.33,0-.3v-.49l0-.09a1.15,1.15,0,0,1,0-.19v-.25l.06-.33v-.16l0-.33,0-.1v-.87l0-.32,0-.18,0-.34v-.41a.48.48,0,0,1,0-.12l0-.29,0-.1,0-.3,0-.12a.75.75,0,0,1,0-.15l0-.08,0-.14v-.51s.17-.25.29-.29h.07l.17,0a1.18,1.18,0,0,1,.25,0l0,0h.3l.2,0H121a.66.66,0,0,1,.28,0l0,.09a.92.92,0,0,1,.08.25v.38l0,.37,0,.16,0,.34,0,.17v.3l0,.16v.29l0,.17,0,.29,0,.16v.7s0,.05,0,.09l0,.09,0,.3,0,.16v.3l0,.15Zm11.52.58v0a.62.62,0,0,1,0,.19l0,.2V201l0,.29,0,.17,0,.31,0,.17,0,.34,0,.42,0,.17,0,.37a.42.42,0,0,1,0,.15.4.4,0,0,1-.13.13.51.51,0,0,1-.29.05l-.23,0-.14,0h-.43l-.25,0h-.16a1.85,1.85,0,0,1-.19-.14.47.47,0,0,1-.07-.28l0-.32-.05-.35v-.19l0-.3v-.14s0-.06,0-.09l0-.26v-.6l0-.33v-.4a1.09,1.09,0,0,1,0-.18v-.4l0-.14v-.18a.5.5,0,0,1,0-.27l0-.31,0-.16-.09-.13-.24.2-.26.26-.12.1v0a1,1,0,0,1-.17.18l-.21.25-.15.15-.18.24-.08.1-.2.18-.1.08-.21.18,0,.06a.45.45,0,0,1-.13.11l-.17.14a.34.34,0,0,1-.24.11.48.48,0,0,1-.31-.18l-.1-.08,0,0a.66.66,0,0,1-.15-.14l-.13-.15-.24-.33-.13-.11-.19-.23-.32-.35-.27-.25-.1-.11-.17-.23-.29-.15-.16.07v.74l0,.28,0,.11,0,.31v.43l0,.17,0,.3a.57.57,0,0,1,0,.32v.13l0,.18v.76l.05.2v.33l0,.18,0,.32a1.09,1.09,0,0,1-.29.28h-.12l-.29,0h-.15l-.32,0h-.41a.49.49,0,0,1-.17,0h-.08a.36.36,0,0,1-.09-.29l0-.36v-.17l0-.31,0-.16v-.94l0-.32v-.58l0-.22a.48.48,0,0,1,0-.17v-.08l0-.21a.39.39,0,0,1,0-.16v-.09l0-.34v-.62l0-.33,0-.18,0-.33v0a.47.47,0,0,1,0-.16l0-.21,0-.07a.6.6,0,0,1,0-.23l0-.2,0-.14v-.31l0-.18v-.32l0-.15,0-.33v-.15l0-.31v-.46l0-.13c0-.08.06-.15.11-.16l.13.08,0,0,.11.1.1.1a.69.69,0,0,1,.11.13l.06.09.17.24.11.11.2.22.14.14.16.12a.7.7,0,0,1,.18.21l.23.2.22.22.14.13.1.11.22.22.09.13.2.2.12.09.19.19a1.13,1.13,0,0,1,.1.13l0,0,.33.29.24.23.09.11.24.24.1.07.12.15.24,0,.13-.08.26-.25.12-.13.22-.2.09-.12.13-.18a1,1,0,0,1,.18-.18l0,0,.11-.17a1.15,1.15,0,0,1,.14-.17l0,0,.24-.22.1-.13.24-.21.16-.11.17-.15s.05,0,.08-.07l.09-.05.12-.17a.58.58,0,0,1,.15-.16h0l.22-.25.14-.13.24-.24.05-.08.23-.27.09-.08.08-.07.25-.18a.24.24,0,0,1,.26-.08l0,.17,0,.26a.86.86,0,0,1,0,.16l0,.11,0,.33v.1l0,.32,0,.14v.54l0,.14a.69.69,0,0,1,0,.32v.33l0,.14v.45l0,.3v.22l0,.33v.32a.53.53,0,0,1,0,.12l0,.09.06.3v.15l0,.28Zm9.42.72v.37a.53.53,0,0,1,0,.25l0,.13v0a.51.51,0,0,1-.06.22l0,.09a.19.19,0,0,1-.05.11l-.05.08-.07.12a.6.6,0,0,1-.18.21l-.33.43-.2.2h0a.44.44,0,0,1-.24.13l-.18,0-.14.07-.31.08-.15,0-.32.09-.38.09a.2.2,0,0,1-.11,0H139l-.17,0H138l-.29,0h-.48l-.17,0h-.43l-.34,0h-.5a.48.48,0,0,1-.22-.12.63.63,0,0,1-.15-.26v0l0-.3,0-.14v-.32l0-.18V202a.25.25,0,0,1,0-.12l0-.08,0-.2a1.09,1.09,0,0,1,0-.18v-.5l0-.31v-.21l0-.35v-.38a.68.68,0,0,1,0-.14v0l0-.32v-.64l0-.24v-.47a.32.32,0,0,1,0-.13v-.36h0a.82.82,0,0,1,0-.28l0-.16,0-.17V196a.81.81,0,0,1,0-.16l0-.07v-.28a.66.66,0,0,1,0-.14l0-.07,0-.32,0-.13,0-.32a.22.22,0,0,1,0-.1.39.39,0,0,1,.3-.29l.28,0h.21l.29,0h.86l.15,0h.19l.16,0,.3,0h.48l0,0a.71.71,0,0,1,.25,0l.21,0,.36.06.19.06.19,0,.2.06,0,0,.27.1.19,0,.2.07a.58.58,0,0,1,.19.1l0,0,.17.11a.52.52,0,0,1,.11.1l.23.27s0,.05.06.08l0,0,.17.31v0a.51.51,0,0,1,.07.17l.05.19v.12l0,.17a.92.92,0,0,1,0,.29l0,.15,0,.3v.3a.62.62,0,0,1-.12.3l0,.08-.08.11-.15.17-.09.09-.08,0-.19.2-.23.2,0,.11.13.12.14.06.21.14.13.12.13.1a.66.66,0,0,1,.14.15l0,0,.13.17a.75.75,0,0,1,.09.15l0,0,.05.27,0,.18.08.27a.43.43,0,0,1,0,.12Zm7.75,2.43,0,.16a.29.29,0,0,1-.11.18.57.57,0,0,1-.23.12h-.25a.52.52,0,0,1-.17,0h-.43l-.08,0-.31,0-.19,0h-.16a.4.4,0,0,1-.27,0l-.21,0a.58.58,0,0,1-.19,0l-.1,0h-.3l-.32,0a.51.51,0,0,1-.27,0h-.32a.43.43,0,0,1-.25,0l-.16,0-.18,0-.34,0-.19,0h-.34l-.1,0a.69.69,0,0,1-.16-.22,1.28,1.28,0,0,1,0-.19v-.42l0-.32,0-.18v-.14h0v-.32l0-.29v-1.28a.76.76,0,0,1,0-.16l0-.13v-.29l0-.11v-.26a1.11,1.11,0,0,1,0-.17l0-.05,0-.27a.78.78,0,0,1,0-.21l0-.05-.05-.31v-.06a.53.53,0,0,1,0-.12v-.23l0-.19,0-.28v-.57l0-.33,0-.17,0-.31v-.16l0-.23v-.24l.06-.31v-.55a.74.74,0,0,1,.09-.29l0-.06h.66l.33,0h.53a.54.54,0,0,1,.32.16l0,0,0,.16,0,.36v.28a.6.6,0,0,1-.06.27v.31l0,.15,0,.22c0,.05,0,.11,0,.14v.08l0,.32V197a.62.62,0,0,1,0,.13l0,0,0,.3v.41a1.09,1.09,0,0,1,0,.18l0,.09v.7l0,.13v.28l0,.14,0,.19a.8.8,0,0,1,0,.27h0l0,.31,0,.18,0,.25v.12l0,.09,0,.2a.85.85,0,0,1,0,.16l0,.07v.27s0,.06,0,.09v.09l.16.16.18,0,.32,0h.42l.18,0h.41l.43,0h.34l0,0a.52.52,0,0,1,.25,0l.21,0h.13l.3.06a.53.53,0,0,1,.29.17l0,0,0,.17v.86Zm8,0a.41.41,0,0,1-.37.42l-.15,0a.59.59,0,0,1-.3,0l-.23,0H157l-.12,0-.2,0a.45.45,0,0,1-.26,0l-.36,0-.17,0-.31,0-.17,0-.34,0-.15,0h-.31l-.17,0-.14,0-.17,0h-.22l-.26,0-.13,0h-.32l-.16,0h-.26l-.12,0-.13,0-.27,0a2.14,2.14,0,0,1-.25-.24.43.43,0,0,1-.07-.25v-.19l0-.16,0-.27,0-.19v-.76l0-.09s0-.07,0-.09l0-.3,0-.17v-.44l0-.33v-.25l0-.27,0-.15,0-.29V199l0-.29v-.16l0-.25-.07-.18v-.46l0-.34v-.49l0-.14,0-.3v-.91s0-.08,0-.12v-.09l0-.3s0-.1,0-.13l0-.28,0-.13a1.55,1.55,0,0,1,.25-.23,1.08,1.08,0,0,1,.19,0l.16,0,.17,0,.26,0,.11,0h.13l.3,0h.79a.4.4,0,0,1,.15,0h.06l.34,0h.38a.51.51,0,0,1,.25,0l.45,0,.18,0a.44.44,0,0,1,.2,0h.05l.29,0h1a.38.38,0,0,1,.28.09v0a1.21,1.21,0,0,1,0,.19v.26a.65.65,0,0,1,0,.16v.06l0,.17.06.31a.64.64,0,0,1-.12.36v0l-.18,0h-.26a.52.52,0,0,1-.18,0h-.37l-.12,0-.34,0a.72.72,0,0,1-.29,0l-.17,0-.34,0h-.16l-.34,0h0a.54.54,0,0,1-.18,0l-.26-.06-.53,0-.17.15v.17l0,.17,0,.29,0,.13,0,.29,0,.15v.61l.17.16.16,0h.42l.13,0,.2,0a.3.3,0,0,1,.13,0h.11l.3,0,.14,0h.16a.6.6,0,0,1,.2,0h.81s.08,0,.12,0l.16,0a.49.49,0,0,1,.17.37v.84a.37.37,0,0,1,0,.11.35.35,0,0,1-.25.25h-.86l-.17.05h-.14a.59.59,0,0,1-.23,0h-.48l-.12.05-.22,0h-.17l-.06,0h-.5l-.18.14v.15l0,.31v.14l0,.29v.42l0,.16v.27l0,.15.18.21.17,0,.33,0h.16l.46,0,.21,0,.13,0,.08,0h.85l.48,0h.11l.38,0h.4l.09,0a.51.51,0,0,1,.21.35v.32l0,.21Zm9.23-1.08v.41l-.06.33a.66.66,0,0,1-.15.38h0l-.14.07-.17.07a1,1,0,0,1-.24.05h0l-.16.08h-.13l-.14.07-.37.06-.13,0-.28.06a.41.41,0,0,1-.16,0h-.06l-.32,0-.1,0a.39.39,0,0,1-.15,0l-.22,0-.2,0h-.21a.3.3,0,0,1-.13,0h-.09l-.25,0a.42.42,0,0,1-.12,0l-.08,0-.29-.1h-.13l-.27-.09-.17,0-.24-.09-.12-.07-.08,0-.23-.2-.12-.09-.27-.17-.1-.07s0-.05-.07-.06l-.15-.15-.06,0a.8.8,0,0,1-.13-.13l-.12-.16-.3-.4-.08-.11-.16-.26,0-.12-.14-.29,0-.12-.11-.32-.06-.12-.08-.24a.53.53,0,0,1,0-.12l0-.13-.06-.28v-.13l0-.29v-.09s0-.06,0-.09v-.21a1,1,0,0,1,0-.18l0-.1,0-.14a1.09,1.09,0,0,1,0-.26l0,0,0-.33h0a.74.74,0,0,1,0-.29l0-.11.07-.18.12-.26.11-.19,0-.15a.91.91,0,0,1,.09-.17l0,0,.16-.25,0,0a.66.66,0,0,1,.11-.2l.15-.13.08-.12.21-.21h0a.58.58,0,0,1,.2-.21l0,0s.08,0,.1-.06l.1-.05.27-.22.13-.11.25-.15a.26.26,0,0,1,.11-.07l.26-.1.17-.1.27-.09.18,0,.28-.09.06,0,.12,0,.22,0,.17,0h.25a.39.39,0,0,1,.16,0h.26a.7.7,0,0,1,.25,0l.07,0,.17,0a.5.5,0,0,1,.17,0l.08,0,.29.07h.16l.32.06.15.05.73.25a.31.31,0,0,1,.12.05l.1,0,.06.11a.61.61,0,0,1,.08.26v.26l0,.15v.22c0,.07,0,.09,0,.16V196a.31.31,0,0,1,0,.13v.06l-.12.08a.42.42,0,0,1-.39-.1l-.09,0-.12-.07-.27-.08h-.15l-.29-.1-.12,0-.34,0-.13,0-.34,0-.16,0-.16,0-.17,0h-.34l-.12.07-.21.07h-.24l-.3.08-.12.09-.21.14-.14.11h0a.74.74,0,0,1-.19.16l0,0-.1.07-.23.24-.08.13-.08.17a.51.51,0,0,1-.17.21v0l-.11.25-.08.15-.06.23,0,.16v.94l0,.29,0,.12.06.33.06.12.17.31.17.29.08.09.23.22.11.14.14.09a.69.69,0,0,1,.17.17l0,0,.28.16.29.12a.23.23,0,0,1,.1,0l.07,0,.31.07h.17l.33.08.13,0,.17,0h.52l.17,0,.41,0,.22-.08a.35.35,0,0,1,.17,0h.07l.27-.07.08,0a1,1,0,0,1,.18-.06l.23-.06a1.2,1.2,0,0,1,.31.19.16.16,0,0,1,0,.1l0,.2Zm11.15-2.47-.06.31,0,.14-.07.32,0,.12a.21.21,0,0,1,0,.07l-.11.27-.06.11s0,0,0,0l-.16.24,0,.13-.1.2a.6.6,0,0,0-.09.13l0,0-.22.29-.08.11-.21.21-.15.14-.13.16a.55.55,0,0,1-.18.16l-.21.1-.15.08-.23.13-.11,0-.08,0-.13.09-.14.07-.13.06-.24.11-.18.06-.41.15-.3.08h-.91a.15.15,0,0,1-.1,0l-.15,0-.28,0h-.14l-.37-.07a.48.48,0,0,1-.14-.05l-.21-.08-.12,0-.28-.08-.17-.05-.13,0a.47.47,0,0,1-.23-.12h0l-.24-.1-.08-.06-.1-.06-.24-.17-.13-.12,0,0-.2-.22a.56.56,0,0,1-.19-.16l-.11-.16-.1-.1-.15-.27a.52.52,0,0,1-.19-.22l-.06-.11,0,0a.43.43,0,0,1-.12-.22l-.05-.19-.1-.13-.09-.29-.06-.13-.11-.29a.85.85,0,0,1-.05-.24v-.66l0-.13v-.31l0-.11v-.16l0-.24v-.07a.9.9,0,0,1,0-.16l.09-.25v-.13l.1-.28,0-.14.11-.26.07-.16.14-.32.08-.15.16-.25.07-.09.21-.25.21-.25a.28.28,0,0,1,.06-.08l.08-.08.32-.3.1-.1.5-.3.18-.08.28-.14.15-.08.28-.13h0a.56.56,0,0,1,.21-.06h.16l.14,0,.32,0h.21l.43,0h.38l.36,0h.05a.5.5,0,0,1,.21,0l.18,0,.19,0,.29.06.4.15.17,0,.19.06a1.51,1.51,0,0,1,.17.1l.07.05.42.25.19.14.13.13.21.23.11.12.26.25.07.07.12.14a1,1,0,0,1,.13.25l.18.26.05.09.16.26,0,.1,0,.1.07.25,0,.11,0,.3.06.14.07.3,0,.18v.24c0,.06,0,.1,0,.14l0,.07,0,0a.94.94,0,0,1,0,.29v.32A.5.5,0,0,1,178.54,199.57Zm-31-16.78c-11.15,0-21.91-3.08-28.25-7.11s-11-25.68-11-25.68c1.34,2,6.34,4.92,6.34,4.92-2.5-3.84-2.88-17.68-2.88-17.68,0,3.66,5.09,11.53,5.09,11.53-2-8.64,4.71-26.32,4.71-26.32,2.3,20.94,11.14,24,11.14,24-4.42-5.77-5.95-15.76-5.95-15.76,2.11,10.19,10.95,15.76,10.95,15.76-5.38-8.84-3.65-32.86-2.31-33.63s8.65,0,8.65,0l9.42-.34c7.11,11.38,1.15,33.78,1.15,33.78,7.3-2.69,8.26-24.41,8.26-24.41,1.73,3.46,5.77,23.06,5.77,23.06,6.15-5.19,6.72-23.25,6.72-23.25s6,16.91,6.15,22.68a11,11,0,0,1-3.26,8.64c2.3,0,8.26-5.36,8.26-5.36a73.78,73.78,0,0,1-4.23,20C178.47,178.18,158.68,182.79,147.53,182.79Zm39.84,20.76-.14,0H187a.86.86,0,0,1-.23,0l0,0h-.33a.31.31,0,0,1-.19,0l-.18,0h-.17a.61.61,0,0,1-.26-.08l-.09,0,0,0a.48.48,0,0,1-.08-.16l-.08-.21-.06-.1-.15-.33-.05-.15-.13-.28-.05-.1-.14-.22a.45.45,0,0,1-.06-.12v-.08l-.15-.17a.53.53,0,0,1-.08-.15l0-.07-.15-.26,0-.07s0,0,0-.06l-.07-.25-.12-.19-.21-.18h-.17l-.26,0h-.48l-.17.05-.14.16,0,.12,0,.35v.16l0,.3,0,.16,0,.31v.45l0,.14v.37l0,.37,0,.16s-.1.14-.19.22a.28.28,0,0,1-.17,0h-.06l-.4,0h-.35l-.13,0-.35,0s-.3-.2-.32-.3h0l0-.36v-.17l0-.31v-.12l0-.34v-.15l0-.31,0-.11,0-.35,0-.16,0-.32v-.15l0-.33,0-.13,0-.31,0-.18,0-.3V199l0-.19a.48.48,0,0,1,0-.17l0-.07,0-.33v-.14l0-.33v-.5l0-.12V197l0-.21v-.16l0-.18a1.08,1.08,0,0,1,0-.18v-.07l0-.37,0-.06a.66.66,0,0,1,0-.13v-.25l0-.16,0-.33v-.12l0-.23s0-.07,0-.1v-.09a.43.43,0,0,1,.13-.22A.88.88,0,0,1,181,194l.29,0h.18l.34,0,.16,0h.31l.18,0,.31,0,.13,0,.29,0,.12,0,.3,0h.19a.82.82,0,0,1,.27,0h.78a.77.77,0,0,1,.29.05l.26,0,.13,0,.09,0,.24.17h0a.8.8,0,0,1,.23.1l.14.1h0a.72.72,0,0,1,.21.12l.15.1.07.1s0,0,0,0l.16.19h0a.79.79,0,0,1,.2.21l.09.15v0a.66.66,0,0,1,.14.24l0,.09a.31.31,0,0,1,0,.13v.11l.06.27.05.17,0,.08a.66.66,0,0,1,0,.37h0l0,.12,0,.19v.17l0,.31v0a.57.57,0,0,1-.08.26l-.07.14-.09.16-.13.21a.62.62,0,0,1-.08.12l-.05,0L187,199a.44.44,0,0,1-.21.25l-.18.18s-.07,0-.09.07l-.09.07-.24.13-.13.06-.11.08-.08.24.1.14.11.28.12.14.13.23.08.14.12.25.09.18.11.28.1.1.15.27v0a.7.7,0,0,1,.09.17l.08.2,0,.15.16.23.09.12.08.16a.61.61,0,0,1,.07.17l0,.08A.32.32,0,0,1,187.37,203.55Zm8.59-.43a.42.42,0,0,1-.12.3.53.53,0,0,1-.25.12l-.14,0a.62.62,0,0,1-.31,0l-.23,0h-.12l-.12,0-.2,0a.45.45,0,0,1-.26,0l-.35,0-.17,0-.32,0-.17,0-.34,0-.15,0h-.31l-.17,0-.13,0-.18,0h-.22l-.26,0-.13,0H191l-.16,0h-.26l-.12,0-.13,0-.27,0a2.14,2.14,0,0,1-.25-.24.43.43,0,0,1-.07-.25v-.19l0-.16v-.27l0-.19v-.85s0-.07,0-.09l0-.3,0-.17v-1l0-.27,0-.15V199l0-.29v-.16l0-.25-.07-.18v-.46l0-.34,0-.13,0-.36v-.6l0-.33v-.42s0-.08,0-.12l0-.09,0-.3s0-.1,0-.13l0-.28,0-.13a1.55,1.55,0,0,1,.25-.23,1.06,1.06,0,0,1,.2,0l.15,0,.17,0,.27,0,.1,0H191l.3,0h.79a.4.4,0,0,1,.15,0h.06l.34,0H193a.53.53,0,0,1,.25,0l.44,0,.19,0a.41.41,0,0,1,.19,0h.06l.28,0h1a.38.38,0,0,1,.28.09v0a1.21,1.21,0,0,1,0,.19v.26a.38.38,0,0,1,0,.16v.23l.05.31a.64.64,0,0,1-.12.36v0l-.17,0h-.27a.52.52,0,0,1-.18,0h-.37l-.12,0-.34,0a.72.72,0,0,1-.29,0l-.17,0-.34,0h-.16l-.34,0h0a.54.54,0,0,1-.18,0l-.26-.06-.53,0-.17.15v.17l0,.17,0,.29v.13l0,.29,0,.15v.61l.17.16.16,0h.42l.13,0,.2,0a.3.3,0,0,1,.13,0h.11l.3,0,.14,0h.16a.6.6,0,0,1,.2,0h.81s.08,0,.12,0l.16,0a.49.49,0,0,1,.17.37v.84a.37.37,0,0,1,0,.11.35.35,0,0,1-.25.25H194l-.17.05h-.14a.51.51,0,0,1-.22,0H193l-.12.05-.22,0h-.17l-.06,0h-.5l-.18.14v.15l0,.31v.43l0,.13v.29l0,.16v.42l.18.21.17,0,.33,0h.16l.46,0,.21,0,.13,0,.08,0h.85l.48,0h.11l.39,0h.39l.09,0a.51.51,0,0,1,.21.35l0,.32,0,.21ZM228,178.58c15.36,8.48,15.09,22.34,15.09,22.34-.86-4.1-6.7-9.36-6.7-9.36-9.85-7.74-19.39-20.38-20.9-22.42C217.84,171.94,228,178.58,228,178.58Zm2.05-15.35a13.92,13.92,0,0,1-2.32-.9c-12.66-6-14.57-19.36-14.8-23a74.08,74.08,0,0,0,11.5,14.39c4,4.15,12.78,8,12.78,8,11.85,5.59,17.1,9.92,17.1,9.92C248,167.15,235.81,164.81,230.09,163.23Z" transform="translate(-34.71 -55.14)"/><path class="cls-1" d="M176.47,198l-.1-.31-.08-.12-.12-.3-.08-.09-.13-.27-.12-.14-.25-.21-.1-.09-.26-.19-.39-.3-.17-.06-.26-.11h-.18l-.29,0h-.05a1.08,1.08,0,0,1-.18,0l-.05,0-.09,0h-.51l-.17,0-.23.08-.11,0h-.1l-.34.2-.1.07-.27.19-.11.08-.17.23-.12.18-.08.18a.71.71,0,0,1-.11.17l0,0-.13.26,0,.12-.1.32,0,.17v.3l0,.17,0,.19v.19l0,.12v.29l.07.2.09.29,0,.15.1.27.07.1.18.2a.73.73,0,0,1,.08.09l.05.08.13.12a.42.42,0,0,1,.17.18h0l.24.23.16.09.26.16.18.05h.07l.17.05,0,0H173l.3.06.16,0h.31l.2,0,.45-.06.22-.11.13,0h0l.33-.18.13-.08.22-.19.1-.08.25-.17.1-.14.15-.21.09-.16,0-.13.14-.24v-.13l.07-.27,0-.13,0-.36v-.41a.4.4,0,0,1,0-.15l0-.07-.06-.31Z" transform="translate(-34.71 -55.14)"/><path class="cls-1" d="M185.41,197.07l0-.16-.05-.27,0-.14-.18-.25-.13-.13-.3-.2-.16,0-.28-.09h-.18a.74.74,0,0,1-.21,0h-.49l-.21.05h-.27l-.17,0-.12.16v.14l0,.32v.17l0,.3v.19l0,.36,0,.36v.14l0,.3,0,.12v.15l.16.13h.62l.63,0h.33l.33,0,.15,0,.25-.18.16-.11.13-.27.08-.16,0-.27v-.17l0-.15Z" transform="translate(-34.71 -55.14)"/><path class="cls-1" d="M106.53,197.29l0,.1,0,.13a.72.72,0,0,1,0,.29v0l.2.15.16,0H107l.37.07.13-.05h.27l.08,0,.15,0,.3-.07.16-.09.13,0,.12-.08.25-.21,0-.31,0-.14v-.17l0-.14,0-.17,0-.28-.13-.1,0-.13-.26-.2-.14-.09-.3-.1-.17,0h0a.48.48,0,0,1-.18-.05l0,0h-.17l-.37,0-.33,0-.09,0-.19.16,0,.19,0,.3v.88Z" transform="translate(-34.71 -55.14)"/></g><g id="Plain"><path class="cls-2" d="M265.53,185.59s-.14-4.11-3.75-9.05a18.18,18.18,0,0,0-2.87-3.29c-4.64-4.29-10.93-7.64-24.28-13.92-12.19-5.72-18.73-16.76-21.14-21.67a38.19,38.19,0,0,1-1.3-4h0a36.71,36.71,0,0,1-.86-9.93s8.45-10,8-11.82-9-6.53-9-6.53l6.44-8.17s1.54-1.92,1.63-8.07.68-15,.68-15-11.63,9.32-13.26,14.31L203,93s-3.46-1.06-4.23-1.15c0,0,2.6-6.63,2.6-7.3s-5.58.38-6.54.48l-5.67-9.71s-3.94,8.36-3.65,16.43l-8.26-6,1.73-3,5.67-3.17L185,64.89l-12.49,6.54-.29,6.34-2.5,4.13s-3.84-1.44-4.9-1.63c0,0-.38-7.11-1.34-9.32s-6.15,5.28-6.25,7.4c0,0-4.81-.51-7.23-.44V72.15l2.77-5.05-7.64-12-8.43,12,3.46,5.12.14,6s-6.05,1-7.13,1.45c0,0-4.76-5.91-6.56-7.21,0,0-2.24,2.16-1.44,9.73A30.86,30.86,0,0,0,121,84.11l-2.74-4.39-.58-5.84-13.19-6.7,1.16,15.2,5.11,1.73,3.17,4s-5.9,3.24-7.71,6.48l-4.9-17.94s-5,8.93-5.62,11.6c0,0-5.69-1.22-6-.65s2,6.73,2.67,7.33c0,0-3.46,1.92-4.61,3.84L69.51,83.44S68,95,70.66,102.27,82.58,113,82.58,113s-9.23,6-9,7.88,8.64,9.42,8.64,9.42-5.28,21.81-18.06,31.13c-12.41,9-32.81,21.55-28.94,37.68a13.24,13.24,0,0,1,.37,3c0,3.79,1,13.8,9.26,20.76,0,0-13.93-21.61,7.78-35.45,0,0,4.71-3.94,15.66-9S88.63,159,88.63,159s-5.57,15-15.47,20.75-22.1,20.66-17.39,36,15.57,18.07,15.57,18.07,8.84,4.13,4.8,11.05c0,0,8.07-4.13,1.54-11.63S66.53,223,69.61,207.87s12.2-20.76,12.2-20.76-13.74,19.7-3.56,36.61S97.37,241,97.37,241s-8.93-8.35-5.47-28c0,0-1.44,13.94,23.73,25.85a110.42,110.42,0,0,1,2.11-20c1.13,5.43,3.56,13.49,8.36,16.36,0,0,9.11-2.92,13.61-11.32,4.14,4.2,7.17,8.51,6.47,11.65-1.92,8.65-2.69,8.84-2.69,8.84s14.9-1.34,17.88-16.14,2.78-12.39,2.78-12.39,16.72,18.54,8,28.92c0,0,30.84-3.56,36.12-34.21,0,0,9.42,16.24-3.17,34.21,0,0,30.94-18.93,15.95-52.37,0,0,13.84,6.54,17.78,17.49s-6.52,17-6.52,17-7.61,3.2-3.19,10c0,0-1.15-6.63,4.42-9.51s18.06-10.43,8.17-36.56c0,0-2.56-7.41-13.1-13.17,0,0-16.44-9.89-20.77-21.13,0,0,14,11.94,22.15,14.74,9.86,3.4,28.63,7.5,29.59,19.89s-4.23,20.66-6.63,22.58C252.93,213.82,267.84,206.06,265.53,185.59ZM66.26,170a4.85,4.85,0,0,1-1.08.57c-32.32,12.86-29,28.17-29,28.17C34.74,184.74,47.7,175.2,50.58,173s14.56-10.67,14.56-10.67a54.45,54.45,0,0,0,17.15-29.11C81.24,162.88,68.58,168.26,66.26,170Zm-8.38,35.13c.29-13.93,19.22-25.65,19.22-25.65C63.65,193.55,57.88,205.08,57.88,205.08Zm56.79-50.16c-2.5-3.84-2.88-17.68-2.88-17.68,0,3.66,5.09,11.53,5.09,11.53-2-8.64,4.71-26.32,4.71-26.32,2.3,20.94,11.14,24,11.14,24-4.42-5.77-5.95-15.76-5.95-15.76,2.11,10.19,10.95,15.76,10.95,15.76-5.38-8.84-3.65-32.86-2.31-33.63s8.65,0,8.65,0l9.42-.34c7.11,11.38,1.15,33.78,1.15,33.78,7.3-2.69,8.26-24.41,8.26-24.41,1.73,3.46,5.77,23.06,5.77,23.06,6.15-5.19,6.72-23.25,6.72-23.25s6,16.91,6.15,22.68a11,11,0,0,1-3.26,8.64c2.3,0,8.26-5.36,8.26-5.36a73.78,73.78,0,0,1-4.23,20c-3.84,10.57-23.63,15.18-34.78,15.18s-21.91-3.08-28.25-7.11-11-25.68-11-25.68C109.67,152,114.67,154.92,114.67,154.92ZM228,178.58c15.36,8.48,15.09,22.34,15.09,22.34-.86-4.1-6.7-9.36-6.7-9.36-9.85-7.74-19.39-20.38-20.9-22.42C217.84,171.94,228,178.58,228,178.58Zm2.05-15.35a13.92,13.92,0,0,1-2.32-.9c-12.66-6-14.57-19.36-14.8-23a74.08,74.08,0,0,0,11.5,14.39c4,4.15,12.78,8,12.78,8,11.85,5.59,17.1,9.92,17.1,9.92C248,167.15,235.81,164.81,230.09,163.23Z" transform="translate(-34.71 -55.14)"/></g></g></svg>