<svg id="Projects_Page" data-name="Projects Page" xmlns="http://www.w3.org/2000/svg" viewBox="0 0 340.36 174.4"><defs><style>.cls-1{fill:#897364;}.cls-2,.cls-3,.cls-4{fill:none;stroke:#68584d;stroke-miterlimit:10;stroke-width:7px;}.cls-3{stroke-dasharray:9.8 9.8;}.cls-4{stroke-dasharray:10.49 10.49;}.cls-5{fill:#68584d;}</style></defs><title>video-frame</title><g id="Body"><g id="Video-frame"><rect class="cls-1" x="3.5" y="3.5" width="333.36" height="167.4"/><polyline class="cls-2" points="336.86 165.9 336.86 170.9 331.86 170.9"/><line class="cls-3" x1="322.06" y1="170.9" x2="13.4" y2="170.9"/><polyline class="cls-2" points="8.5 170.9 3.5 170.9 3.5 165.9"/><line class="cls-4" x1="3.5" y1="155.4" x2="3.5" y2="13.75"/><polyline class="cls-2" points="3.5 8.5 3.5 3.5 8.5 3.5"/><line class="cls-3" x1="18.3" y1="3.5" x2="326.96" y2="3.5"/><polyline class="cls-2" points="331.86 3.5 336.86 3.5 336.86 8.5"/><line class="cls-4" x1="336.86" y1="18.99" x2="336.86" y2="160.65"/><rect class="cls-5" x="4272.93" y="-1640.66" width="54.32" height="54.32" transform="translate(-4296.19 -893.82) rotate(32.88)"/><path class="cls-5" d="M4208-1628.34s23.91-28.38,52.29-4.47l-4,8.08s-28.38-23.9-48.33-3.61Z" transform="translate(-4109.14 1699.37)"/><path class="cls-5" d="M4198.85-1640.92s33.93-40.28,74.21-6.35l-5.61,11.48s-40.28-33.93-68.6-5.13Z" transform="translate(-4109.14 1699.37)"/></g></g></svg>